inDegrees=no
num_controls=7
num_derivatives=13
num_iterations=118
num_multipliers=7
num_parameters=0
num_slacks=7
num_states=26
objective=0.474298
objective_accelerations=0.049605
objective_balance=0.003765
objective_effort=0.044293
objective_height=0.371025
objective_ligament=0.005610
solver_duration=1654.814113
status=Solve_Succeeded
success=true
DataType=double
version=3
OpenSimVersion=4.5
endheader
time	/jointset/ground_pelvis/pelvis_tilt/value	/jointset/ground_pelvis/pelvis_tx/value	/jointset/ground_pelvis/pelvis_ty/value	/jointset/hip_l/hip_flexion_l/value	/jointset/hip_l/hip_adduction_l/value	/jointset/hip_l/hip_rotation_l/value	/jointset/back/lumbar_extension/value	/jointset/patellofemoral_l/patellar_flexion_l/value	/jointset/knee_l/knee_flexion_l/value	/jointset/knee_l/knee_adduction_l/value	/jointset/knee_l/knee_rotation_l/value	/jointset/ankle_l/ankle_angle_l/value	/jointset/subtalar_l/subtalar_angle_l/value	/jointset/ground_pelvis/pelvis_tilt/speed	/jointset/ground_pelvis/pelvis_tx/speed	/jointset/ground_pelvis/pelvis_ty/speed	/jointset/hip_l/hip_flexion_l/speed	/jointset/hip_l/hip_adduction_l/speed	/jointset/hip_l/hip_rotation_l/speed	/jointset/back/lumbar_extension/speed	/jointset/patellofemoral_l/patellar_flexion_l/speed	/jointset/knee_l/knee_flexion_l/speed	/jointset/knee_l/knee_adduction_l/speed	/jointset/knee_l/knee_rotation_l/speed	/jointset/ankle_l/ankle_angle_l/speed	/jointset/subtalar_l/subtalar_angle_l/speed	/forceset/tau_hip_flexion_l	/forceset/tau_hip_adduction_l	/forceset/tau_hip_rotation_l	/forceset/tau_knee_flexion_l	/forceset/tau_ankle_angle_l	/forceset/tau_subtalar_angle_l	/forceset/tau_lumbar_extension	lambda_cid13_p0	lambda_cid13_p1	lambda_cid13_p2	lambda_cid13_p3	lambda_cid13_p4	lambda_cid13_p5	lambda_cid14_p0	/jointset/ground_pelvis/pelvis_tilt/accel	/jointset/ground_pelvis/pelvis_tx/accel	/jointset/ground_pelvis/pelvis_ty/accel	/jointset/hip_l/hip_flexion_l/accel	/jointset/hip_l/hip_adduction_l/accel	/jointset/hip_l/hip_rotation_l/accel	/jointset/back/lumbar_extension/accel	/jointset/patellofemoral_l/patellar_flexion_l/accel	/jointset/knee_l/knee_flexion_l/accel	/jointset/knee_l/knee_adduction_l/accel	/jointset/knee_l/knee_rotation_l/accel	/jointset/ankle_l/ankle_angle_l/accel	/jointset/subtalar_l/subtalar_angle_l/accel	gamma_cid13_p0	gamma_cid13_p1	gamma_cid13_p2	gamma_cid13_p3	gamma_cid13_p4	gamma_cid13_p5	gamma_cid14_p0
0	-0.03677708014825838	0.05665753169384869	0.9203423987403198	0.3085816938045678	-0.2956271434365154	-0.3013144932020182	-0.3879492264334186	0.2499269421184862	0.2499269421184919	-0.1745328278437672	-0.1742454934551715	-0.0008036623358878681	0.0004476642588340011	0	0	0	0	0	0	0	0	0	0	0	0	0	0.07934801092789455	-0.04114753813736795	-0.0199969921012977	-0.2432474015041879	0.185930757553395	-0.02275744087956709	-0.006351128489521974	16.2735461855482	4.354209667858644	1.912679227714701	14.69456711079792	-614.6935673539933	-66.52056367217959	-23.18716006594976	-1.295165416433131	-2.278779485228657	-1.034276721189817	10.48596545841609	-0.8738723712785917	3.509649076003344	-7.673885816774064	10.32548617138068	10.32548617137392	1.513402722304906	-0.2062924657081824	1.718264825114331	-0.354457078852879	-7.012724261861261e-10	7.563458247619489e-08	1.219338519802211e-07	-3.209144899422439e-08	1.643185558845027e-07	-4.566258088384451e-08	-1.306680437651931e-08
0.01	-0.0368373958420921	0.05654571714271008	0.9202919239287707	0.3090923774498059	-0.295670462250149	-0.3011375160508168	-0.3883304672002926	0.2504328859107853	0.2504328859108145	-0.1744601507400221	-0.174251003497988	-0.0007191082316646695	0.0004298398169125411	-0.01198759904685818	-0.02217011369173862	-0.01004521900922879	0.1015440589185683	-0.008561740545721282	0.03530185992418798	-0.07560397122226935	0.1007014763300076	0.1007014763299907	0.01456321308720175	-0.0009871643858363798	0.01696332070747799	-0.003440616660710687	0.07279656794184823	-0.04913727143094673	-0.01926702303713733	-0.2391142730769362	0.1800837423133093	-0.01144184760846733	0.0002366891317315614	14.68558994533327	-0.2129123327820798	2.561759925331006	13.34545378691661	-618.2634393697421	-75.5249985557364	-23.19316054743073	-1.139236721183117	-2.157214248646889	-0.982150131986208	9.899718473616737	-0.8320531616314635	3.526404287232106	-7.407025452327815	9.869388657197929	9.869388657199408	1.43197495702446	-0.02768335236603883	1.693244131704919	-0.3202498395398192	-3.088338178423251e-08	1.571119158823946e-07	1.706634330837827e-07	1.59386029133883e-08	1.558139276042045e-08	-6.435838035765147e-08	-7.636520064505088e-09
0.02	-0.0370153234408629	0.0562179840671545	0.92014249579889	0.3106007201572412	-0.2957963441223198	-0.300610330333051	-0.3894484222148621	0.25193122652509	0.251931226525091	-0.174241002634355	-0.1742629361700901	-0.0004633452327380104	0.0003813320324120337	-0.02352238098857469	-0.04318370488339588	-0.0197906636663139	0.1995318124387253	-0.01651261170793783	0.07004171331260454	-0.1473428495395379	0.1984793643954992	0.19847936439549	0.02929420037826507	-0.001284525865460029	0.03424177894057213	-0.006136668515808961	0.06624512495578405	-0.05712700472455271	-0.01853705397320486	-0.2349811446496723	0.1742367270732076	-0.000126254337398255	0.006824506752989337	13.17788665832266	-4.792066670233019	3.210451956294962	11.87958840723637	-620.6292753136499	-84.42937568089366	-23.21058764376376	-1.204601995404954	-2.047474985212245	-0.974321850761081	9.774704378733794	-0.75169849457767	3.397247768849077	-6.900867235773991	9.740768518477434	9.740768518475635	1.546957563077165	-0.06833188446561543	1.781292330237708	-0.2055441177303693	-6.10654911422789e-08	2.385892492885942e-07	2.193930141873443e-07	6.396865482100099e-08	-1.331557703636618e-07	-8.305417983145843e-08	-2.206235752490864e-09
0.03	-0.03730671018967117	0.05568539905301483	0.9198966953065901	0.3130722244848563	-0.2959992861560696	-0.2997401728557541	-0.3912656623761082	0.2543931083450518	0.2543931083450449	-0.1738750477008518	-0.1742762854938332	-3.417350576632552e-05	0.0003086400039175771	-0.03468735680949794	-0.06318999893227573	-0.02935580093107144	0.2942393425605382	-0.02404448146298611	0.1037839903341228	-0.215616368230103	0.2934314981470983	0.2934314981471125	0.04376331765989042	-0.001412690585411163	0.05154752965446856	-0.008383934908024119	0.0600866543186158	-0.05089204092440929	-0.01789633701690456	-0.2307751876155361	0.1717314911596994	-0.002699216455438812	0.01249000724713876	12.24117935482299	-3.57093085784179	3.084660751548293	11.40648984443445	-622.036075220186	-81.02245009948345	-23.23844080416511	-1.062310608454903	-1.955698774719173	-0.9455918170549924	9.239310117900651	-0.7492998637712824	3.331826818998861	-6.717272013978377	9.302611005403026	9.302611005407277	1.376931094833623	0.01086860098795215	1.698463772474743	-0.2317105429135991	-9.075441172360455e-08	1.609193669740412e-07	3.139687721180949e-07	8.181338089689303e-08	-2.474199742981901e-07	-1.598896298549759e-07	-2.072206204584777e-08
0.04	-0.03770771974328852	0.05495705266638812	0.9195556470110985	0.316474910671491	-0.2962766206169317	-0.298538770778204	-0.3937509732899158	0.2577905465429007	0.2577905465429008	-0.1733683931377136	-0.1742917309914398	0.0005667051944461579	0.0002139967829116712	-0.04544694195120044	-0.08233597938080182	-0.03884022430471083	0.3857681842421768	-0.03139109713015436	0.1362906333634689	-0.280957000051913	0.3855906399747721	0.3855906399748026	0.05743412630665308	-0.001703760635445912	0.06858317358873191	-0.01052690701809876	0.05392818368145214	-0.04465707712424942	-0.01725562006052605	-0.2265692305814039	0.1692262552461977	-0.005272178573461172	0.01815550774128132	11.3783880259906	-2.358628179855785	2.955584112481987	10.81594993059261	-622.3483823634235	-77.51757012310995	-23.27576861625241	-1.123523859560956	-1.875412265141363	-0.9581790725374508	9.138966690698879	-0.7146476770016766	3.15012097041466	-6.31428986202305	9.182170133692351	9.182170133689143	1.387295836104592	-0.1009129504823124	1.727270974311237	-0.18468526130223	-1.204331634641731e-07	7.996809876833851e-08	4.094898120452824e-07	9.903572912058465e-08	-3.609733955690163e-07	-2.379238355599307e-07	-3.973162257849069e-08
